<svg width="200" height="200" viewBox="0 0 200 200" fill="none" xmlns="http://www.w3.org/2000/svg">
<ellipse cx="100" cy="100" rx="85.8333" ry="85.8333" fill="#BFE0FF"/>
<g filter="url(#filter0_d)">
<path d="M28.3334 38.5833C28.3334 36.3742 30.1242 34.5833 32.3334 34.5833H41C43.2092 34.5833 45 36.3742 45 38.5833V172.917H28.3334V38.5833Z" fill="#F2F3F5"/>
<path d="M42.9167 34.5833H45V172.917H42.9167V34.5833Z" fill="#B1B2B5"/>
<g filter="url(#filter1_i)">
<ellipse cx="36.6666" cy="43.75" rx="16.6667" ry="16.6667" fill="#F2F3F5"/>
</g>
<g filter="url(#filter2_i)">
<ellipse cx="36.6667" cy="43.75" rx="11.6667" ry="11.6667" fill="#F3836F"/>
<path d="M31.5858 40.5056C29.9627 42.7397 29.4495 44.9981 28.3111 44.171C27.1728 43.344 27.5658 40.8625 29.1889 38.6284C30.812 36.3944 33.0506 35.2538 34.189 36.0809C35.3273 36.9079 33.2089 38.2716 31.5858 40.5056Z" fill="#F2F3F5"/>
</g>
</g>
<g filter="url(#filter3_d)">
<rect x="155" y="34.5833" width="16.6667" height="138.333" fill="#F2F3F5"/>
<rect x="169.583" y="34.5833" width="2.08333" height="138.333" fill="#B1B2B5"/>
<g filter="url(#filter4_i)">
<ellipse cx="163.333" cy="43.75" rx="16.6667" ry="16.6667" fill="#F2F3F5"/>
</g>
<g filter="url(#filter5_i)">
<ellipse cx="163.333" cy="43.75" rx="11.6667" ry="11.6667" fill="#F3836F"/>
<path d="M158.253 40.5056C156.629 42.7397 156.116 44.9981 154.978 44.171C153.84 43.344 154.233 40.8625 155.856 38.6284C157.479 36.3944 159.717 35.2538 160.856 36.0809C161.994 36.9079 159.876 38.2716 158.253 40.5056Z" fill="#F2F3F5"/>
</g>
</g>
<g filter="url(#filter6_d)">
<rect x="16.6667" y="113.75" width="166.667" height="26.6667" rx="8" fill="white"/>
<rect x="16.6667" y="133.333" width="166.667" height="7.08334" rx="3.54167" fill="#F2F3F5"/>
<mask id="mask0" mask-type="alpha" maskUnits="userSpaceOnUse" x="16" y="113" width="168" height="28">
<rect x="16.6667" y="113.75" width="166.667" height="26.6667" rx="8" fill="#FFB539"/>
</mask>
<g mask="url(#mask0)">
<path d="M26.875 140.417L53.5417 113.75H26.6667L0 140.417H26.875Z" fill="#FFAC70"/>
<path d="M80.2084 140.417L106.875 113.75H80L53.3334 140.417H80.2084Z" fill="#FFAC70"/>
<path d="M133.542 140.417L160.208 113.75H133.333L106.667 140.417H133.542Z" fill="#FFAC70"/>
<path d="M186.875 140.417L213.542 113.75H186.667L160 140.417H186.875Z" fill="#FFAC70"/>
</g>
</g>
<g filter="url(#filter7_d)">
<rect x="16.6667" y="70.4167" width="166.667" height="26.6667" rx="8" fill="white"/>
<rect x="16.6667" y="90" width="166.667" height="7.08333" rx="3.54167" fill="#F2F3F5"/>
<mask id="mask1" mask-type="alpha" maskUnits="userSpaceOnUse" x="16" y="70" width="168" height="28">
<rect x="16.6667" y="70.4167" width="166.667" height="26.6667" rx="8" fill="#FFB539"/>
</mask>
<g mask="url(#mask1)">
<path d="M26.875 97.0833L53.5417 70.4167H26.6667L0 97.0833H26.875Z" fill="#FFAC70"/>
<path d="M80.2084 97.0833L106.875 70.4167H80L53.3334 97.0833H80.2084Z" fill="#FFAC70"/>
<path d="M133.542 97.0833L160.208 70.4167H133.333L106.667 97.0833H133.542Z" fill="#FFAC70"/>
<path d="M186.875 97.0833L213.542 70.4167H186.667L160 97.0833H186.875Z" fill="#FFAC70"/>
</g>
</g>
<defs>
<filter id="filter0_d" x="16" y="24.0833" width="41.3333" height="153.833" filterUnits="userSpaceOnUse" color-interpolation-filters="sRGB">
<feFlood flood-opacity="0" result="BackgroundImageFix"/>
<feColorMatrix in="SourceAlpha" type="matrix" values="0 0 0 0 0 0 0 0 0 0 0 0 0 0 0 0 0 0 127 0"/>
<feOffset dy="1"/>
<feGaussianBlur stdDeviation="2"/>
<feColorMatrix type="matrix" values="0 0 0 0 0.184314 0 0 0 0 0.184314 0 0 0 0 0.188235 0 0 0 0.15 0"/>
<feBlend mode="normal" in2="BackgroundImageFix" result="effect1_dropShadow"/>
<feBlend mode="normal" in="SourceGraphic" in2="effect1_dropShadow" result="shape"/>
</filter>
<filter id="filter1_i" x="18" y="26.0833" width="35.3333" height="34.3333" filterUnits="userSpaceOnUse" color-interpolation-filters="sRGB">
<feFlood flood-opacity="0" result="BackgroundImageFix"/>
<feBlend mode="normal" in="SourceGraphic" in2="BackgroundImageFix" result="shape"/>
<feColorMatrix in="SourceAlpha" type="matrix" values="0 0 0 0 0 0 0 0 0 0 0 0 0 0 0 0 0 0 127 0" result="hardAlpha"/>
<feOffset dx="-2" dy="-1"/>
<feGaussianBlur stdDeviation="2"/>
<feComposite in2="hardAlpha" operator="arithmetic" k2="-1" k3="1"/>
<feColorMatrix type="matrix" values="0 0 0 0 1 0 0 0 0 1 0 0 0 0 1 0 0 0 0.25 0"/>
<feBlend mode="normal" in2="shape" result="effect1_innerShadow"/>
</filter>
<filter id="filter2_i" x="23" y="31.0833" width="25.3333" height="24.3333" filterUnits="userSpaceOnUse" color-interpolation-filters="sRGB">
<feFlood flood-opacity="0" result="BackgroundImageFix"/>
<feBlend mode="normal" in="SourceGraphic" in2="BackgroundImageFix" result="shape"/>
<feColorMatrix in="SourceAlpha" type="matrix" values="0 0 0 0 0 0 0 0 0 0 0 0 0 0 0 0 0 0 127 0" result="hardAlpha"/>
<feOffset dx="-2" dy="-1"/>
<feGaussianBlur stdDeviation="2"/>
<feComposite in2="hardAlpha" operator="arithmetic" k2="-1" k3="1"/>
<feColorMatrix type="matrix" values="0 0 0 0 0.433333 0 0 0 0 0 0 0 0 0 0 0 0 0 0.25 0"/>
<feBlend mode="normal" in2="shape" result="effect1_innerShadow"/>
</filter>
<filter id="filter3_d" x="142.667" y="24.0833" width="41.3334" height="153.833" filterUnits="userSpaceOnUse" color-interpolation-filters="sRGB">
<feFlood flood-opacity="0" result="BackgroundImageFix"/>
<feColorMatrix in="SourceAlpha" type="matrix" values="0 0 0 0 0 0 0 0 0 0 0 0 0 0 0 0 0 0 127 0"/>
<feOffset dy="1"/>
<feGaussianBlur stdDeviation="2"/>
<feColorMatrix type="matrix" values="0 0 0 0 0.184314 0 0 0 0 0.184314 0 0 0 0 0.188235 0 0 0 0.15 0"/>
<feBlend mode="normal" in2="BackgroundImageFix" result="effect1_dropShadow"/>
<feBlend mode="normal" in="SourceGraphic" in2="effect1_dropShadow" result="shape"/>
</filter>
<filter id="filter4_i" x="144.667" y="26.0833" width="35.3334" height="34.3333" filterUnits="userSpaceOnUse" color-interpolation-filters="sRGB">
<feFlood flood-opacity="0" result="BackgroundImageFix"/>
<feBlend mode="normal" in="SourceGraphic" in2="BackgroundImageFix" result="shape"/>
<feColorMatrix in="SourceAlpha" type="matrix" values="0 0 0 0 0 0 0 0 0 0 0 0 0 0 0 0 0 0 127 0" result="hardAlpha"/>
<feOffset dx="-2" dy="-1"/>
<feGaussianBlur stdDeviation="2"/>
<feComposite in2="hardAlpha" operator="arithmetic" k2="-1" k3="1"/>
<feColorMatrix type="matrix" values="0 0 0 0 1 0 0 0 0 1 0 0 0 0 1 0 0 0 0.25 0"/>
<feBlend mode="normal" in2="shape" result="effect1_innerShadow"/>
</filter>
<filter id="filter5_i" x="149.667" y="31.0833" width="25.3334" height="24.3333" filterUnits="userSpaceOnUse" color-interpolation-filters="sRGB">
<feFlood flood-opacity="0" result="BackgroundImageFix"/>
<feBlend mode="normal" in="SourceGraphic" in2="BackgroundImageFix" result="shape"/>
<feColorMatrix in="SourceAlpha" type="matrix" values="0 0 0 0 0 0 0 0 0 0 0 0 0 0 0 0 0 0 127 0" result="hardAlpha"/>
<feOffset dx="-2" dy="-1"/>
<feGaussianBlur stdDeviation="2"/>
<feComposite in2="hardAlpha" operator="arithmetic" k2="-1" k3="1"/>
<feColorMatrix type="matrix" values="0 0 0 0 0.433333 0 0 0 0 0 0 0 0 0 0 0 0 0 0.25 0"/>
<feBlend mode="normal" in2="shape" result="effect1_innerShadow"/>
</filter>
<filter id="filter6_d" x="12.6667" y="110.75" width="174.667" height="34.6667" filterUnits="userSpaceOnUse" color-interpolation-filters="sRGB">
<feFlood flood-opacity="0" result="BackgroundImageFix"/>
<feColorMatrix in="SourceAlpha" type="matrix" values="0 0 0 0 0 0 0 0 0 0 0 0 0 0 0 0 0 0 127 0"/>
<feOffset dy="1"/>
<feGaussianBlur stdDeviation="2"/>
<feColorMatrix type="matrix" values="0 0 0 0 0.184314 0 0 0 0 0.184314 0 0 0 0 0.188235 0 0 0 0.15 0"/>
<feBlend mode="normal" in2="BackgroundImageFix" result="effect1_dropShadow"/>
<feBlend mode="normal" in="SourceGraphic" in2="effect1_dropShadow" result="shape"/>
</filter>
<filter id="filter7_d" x="8.66669" y="64.4167" width="182.667" height="42.6667" filterUnits="userSpaceOnUse" color-interpolation-filters="sRGB">
<feFlood flood-opacity="0" result="BackgroundImageFix"/>
<feColorMatrix in="SourceAlpha" type="matrix" values="0 0 0 0 0 0 0 0 0 0 0 0 0 0 0 0 0 0 127 0"/>
<feOffset dy="2"/>
<feGaussianBlur stdDeviation="4"/>
<feColorMatrix type="matrix" values="0 0 0 0 0.184314 0 0 0 0 0.184314 0 0 0 0 0.188235 0 0 0 0.18 0"/>
<feBlend mode="normal" in2="BackgroundImageFix" result="effect1_dropShadow"/>
<feBlend mode="normal" in="SourceGraphic" in2="effect1_dropShadow" result="shape"/>
</filter>
</defs>
</svg>
