<svg width="247" height="40" viewBox="0 0 247 40" fill="none" xmlns="http://www.w3.org/2000/svg">
<path d="M0.9085 0.761894H2.7165C2.90317 0.761894 3.05783 0.807228 3.1805 0.897895C3.3085 0.983228 3.39383 1.10056 3.4365 1.24989L5.4045 8.16989C5.4525 8.34056 5.49517 8.52723 5.5325 8.72989C5.57517 8.92723 5.61517 9.13789 5.6525 9.36189C5.69517 9.13789 5.7405 8.92723 5.7885 8.72989C5.84183 8.52723 5.89783 8.34056 5.9565 8.16989L8.2285 1.24989C8.27117 1.12723 8.35383 1.01523 8.4765 0.913895C8.6045 0.812561 8.75917 0.761894 8.9405 0.761894H9.5725C9.75917 0.761894 9.91383 0.807228 10.0365 0.897895C10.1592 0.983228 10.2445 1.10056 10.2925 1.24989L12.5485 8.16989C12.6658 8.51123 12.7672 8.88989 12.8525 9.30589C12.8898 9.09789 12.9272 8.89789 12.9645 8.70589C13.0072 8.51389 13.0498 8.33523 13.0925 8.16989L15.0605 1.24989C15.0978 1.11656 15.1805 1.00189 15.3085 0.905894C15.4365 0.809894 15.5912 0.761894 15.7725 0.761894H17.4605L13.8685 12.3299H11.9245L9.3965 4.42589C9.3645 4.32456 9.32983 4.21523 9.2925 4.09789C9.2605 3.98056 9.2285 3.85523 9.1965 3.72189C9.1645 3.85523 9.12983 3.98056 9.0925 4.09789C9.0605 4.21523 9.0285 4.32456 8.9965 4.42589L6.4445 12.3299H4.5005L0.9085 0.761894ZM21.6824 3.99389C22.1997 3.99389 22.6744 4.07656 23.1064 4.24189C23.5437 4.40723 23.9197 4.64989 24.2344 4.96989C24.549 5.28456 24.7944 5.67389 24.9704 6.13789C25.1464 6.59656 25.2344 7.12189 25.2344 7.71389C25.2344 7.86323 25.2264 7.98856 25.2104 8.08989C25.1997 8.18589 25.1757 8.26323 25.1384 8.32189C25.1064 8.37523 25.061 8.41523 25.0024 8.44189C24.9437 8.46323 24.869 8.47389 24.7784 8.47389H19.7064C19.765 9.31656 19.9917 9.93523 20.3864 10.3299C20.781 10.7246 21.3037 10.9219 21.9544 10.9219C22.2744 10.9219 22.549 10.8846 22.7784 10.8099C23.013 10.7352 23.2157 10.6526 23.3864 10.5619C23.5624 10.4712 23.7144 10.3886 23.8424 10.3139C23.9757 10.2392 24.1037 10.2019 24.2264 10.2019C24.3064 10.2019 24.3757 10.2179 24.4344 10.2499C24.493 10.2819 24.5437 10.3272 24.5864 10.3859L25.1624 11.1059C24.9437 11.3619 24.6984 11.5779 24.4264 11.7539C24.1544 11.9246 23.869 12.0632 23.5704 12.1699C23.277 12.2712 22.9757 12.3432 22.6664 12.3859C22.3624 12.4286 22.0664 12.4499 21.7784 12.4499C21.2077 12.4499 20.677 12.3566 20.1864 12.1699C19.6957 11.9779 19.269 11.6979 18.9064 11.3299C18.5437 10.9566 18.2584 10.4979 18.0504 9.95389C17.8424 9.40456 17.7384 8.76989 17.7384 8.04989C17.7384 7.48989 17.829 6.96456 18.0104 6.47389C18.1917 5.97789 18.4504 5.54856 18.7864 5.18589C19.1277 4.81789 19.541 4.52723 20.0264 4.31389C20.517 4.10056 21.069 3.99389 21.6824 3.99389ZM21.7224 5.40989C21.1464 5.40989 20.6957 5.57256 20.3704 5.89789C20.045 6.22323 19.837 6.68456 19.7464 7.28189H23.4584C23.4584 7.02589 23.4237 6.78589 23.3544 6.56189C23.285 6.33256 23.1784 6.13256 23.0344 5.96189C22.8904 5.79123 22.709 5.65789 22.4904 5.56189C22.2717 5.46056 22.0157 5.40989 21.7224 5.40989ZM36.363 12.3299H35.475C35.2883 12.3299 35.1417 12.3032 35.035 12.2499C34.9283 12.1912 34.8483 12.0766 34.795 11.9059L34.619 11.3219C34.411 11.5086 34.2057 11.6739 34.003 11.8179C33.8057 11.9566 33.6003 12.0739 33.387 12.1699C33.1737 12.2659 32.947 12.3379 32.707 12.3859C32.467 12.4339 32.2003 12.4579 31.907 12.4579C31.5603 12.4579 31.2403 12.4126 30.947 12.3219C30.6537 12.2259 30.4003 12.0846 30.187 11.8979C29.979 11.7112 29.8163 11.4792 29.699 11.2019C29.5817 10.9246 29.523 10.6019 29.523 10.2339C29.523 9.92456 29.603 9.62056 29.763 9.32189C29.9283 9.01789 30.2003 8.74589 30.579 8.50589C30.9577 8.26056 31.4617 8.05789 32.091 7.89789C32.7203 7.73789 33.5017 7.64723 34.435 7.6259V7.1459C34.435 6.59656 34.3177 6.19123 34.083 5.92989C33.8537 5.66323 33.5177 5.52989 33.075 5.52989C32.755 5.52989 32.4883 5.56723 32.275 5.64189C32.0617 5.71656 31.875 5.80189 31.715 5.89789C31.5603 5.98856 31.4163 6.07123 31.283 6.14589C31.1497 6.22056 31.003 6.25789 30.843 6.25789C30.7097 6.25789 30.595 6.22323 30.499 6.15389C30.403 6.08456 30.3257 5.99923 30.267 5.89789L29.907 5.26589C30.851 4.40189 31.9897 3.96989 33.323 3.96989C33.803 3.96989 34.2297 4.04989 34.603 4.20989C34.9817 4.36456 35.3017 4.58323 35.563 4.86589C35.8243 5.14323 36.0217 5.47656 36.155 5.86589C36.2937 6.25523 36.363 6.68189 36.363 7.1459V12.3299ZM32.523 11.0979C32.7257 11.0979 32.9123 11.0792 33.083 11.0419C33.2537 11.0046 33.4137 10.9486 33.563 10.8739C33.7177 10.7992 33.8643 10.7086 34.003 10.6019C34.147 10.4899 34.291 10.3592 34.435 10.2099V8.82589C33.859 8.85256 33.3763 8.90323 32.987 8.97789C32.603 9.04723 32.2937 9.13789 32.059 9.24989C31.8243 9.36189 31.6563 9.49256 31.555 9.64189C31.459 9.79123 31.411 9.95389 31.411 10.1299C31.411 10.4766 31.5123 10.7246 31.715 10.8739C31.923 11.0232 32.1923 11.0979 32.523 11.0979ZM38.306 12.3299V4.12189H39.466C39.6687 4.12189 39.81 4.15923 39.89 4.23389C39.97 4.30856 40.0233 4.43656 40.05 4.61789L40.17 5.60989C40.4633 5.10323 40.8073 4.70323 41.202 4.40989C41.5967 4.11656 42.0393 3.96989 42.53 3.96989C42.9353 3.96989 43.2713 4.06323 43.538 4.2499L43.282 5.72989C43.266 5.82589 43.2313 5.89523 43.178 5.93789C43.1247 5.97523 43.0527 5.99389 42.962 5.99389C42.882 5.99389 42.7727 5.97523 42.634 5.93789C42.4953 5.90056 42.3113 5.88189 42.082 5.88189C41.6713 5.88189 41.3193 5.99656 41.026 6.22589C40.7327 6.44989 40.4847 6.78056 40.282 7.21789V12.3299H38.306ZM48.2293 3.99389C48.7466 3.99389 49.2213 4.07656 49.6533 4.24189C50.0906 4.40723 50.4666 4.64989 50.7813 4.96989C51.0959 5.28456 51.3413 5.67389 51.5173 6.13789C51.6933 6.59656 51.7812 7.12189 51.7812 7.71389C51.7812 7.86323 51.7733 7.98856 51.7573 8.08989C51.7466 8.18589 51.7226 8.26323 51.6853 8.32189C51.6533 8.37523 51.6079 8.41523 51.5493 8.44189C51.4906 8.46323 51.4159 8.47389 51.3253 8.47389H46.2533C46.3119 9.31656 46.5386 9.93523 46.9333 10.3299C47.3279 10.7246 47.8506 10.9219 48.5013 10.9219C48.8213 10.9219 49.0959 10.8846 49.3253 10.8099C49.5599 10.7352 49.7626 10.6526 49.9333 10.5619C50.1093 10.4712 50.2613 10.3886 50.3893 10.3139C50.5226 10.2392 50.6506 10.2019 50.7733 10.2019C50.8533 10.2019 50.9226 10.2179 50.9813 10.2499C51.0399 10.2819 51.0906 10.3272 51.1333 10.3859L51.7093 11.1059C51.4906 11.3619 51.2453 11.5779 50.9733 11.7539C50.7013 11.9246 50.4159 12.0632 50.1173 12.1699C49.8239 12.2712 49.5226 12.3432 49.2133 12.3859C48.9093 12.4286 48.6133 12.4499 48.3253 12.4499C47.7546 12.4499 47.2239 12.3566 46.7333 12.1699C46.2426 11.9779 45.8159 11.6979 45.4533 11.3299C45.0906 10.9566 44.8053 10.4979 44.5973 9.95389C44.3893 9.40456 44.2853 8.76989 44.2853 8.04989C44.2853 7.48989 44.3759 6.96456 44.5573 6.47389C44.7386 5.97789 44.9973 5.54856 45.3333 5.18589C45.6746 4.81789 46.0879 4.52723 46.5733 4.31389C47.0639 4.10056 47.6159 3.99389 48.2293 3.99389ZM48.2693 5.40989C47.6933 5.40989 47.2426 5.57256 46.9173 5.89789C46.5919 6.22323 46.3839 6.68456 46.2933 7.28189H50.0053C50.0053 7.02589 49.9706 6.78589 49.9013 6.56189C49.8319 6.33256 49.7253 6.13256 49.5813 5.96189C49.4373 5.79123 49.2559 5.65789 49.0373 5.56189C48.8186 5.46056 48.5626 5.40989 48.2693 5.40989ZM62.2539 12.3299C61.9979 12.3299 61.8299 12.2099 61.7499 11.9699L61.5899 11.1779C61.4192 11.3699 61.2405 11.5432 61.0539 11.6979C60.8672 11.8526 60.6645 11.9859 60.4459 12.0979C60.2325 12.2099 60.0005 12.2952 59.7499 12.3539C59.5045 12.4179 59.2379 12.4499 58.9499 12.4499C58.5019 12.4499 58.0912 12.3566 57.7179 12.1699C57.3445 11.9832 57.0219 11.7139 56.7499 11.3619C56.4832 11.0046 56.2752 10.5646 56.1259 10.0419C55.9819 9.51923 55.9099 8.92189 55.9099 8.24989C55.9099 7.64189 55.9925 7.07656 56.1579 6.55389C56.3232 6.03123 56.5605 5.57789 56.8699 5.19389C57.1792 4.80989 57.5499 4.51123 57.9819 4.29789C58.4139 4.07923 58.8992 3.96989 59.4379 3.96989C59.8965 3.96989 60.2885 4.04456 60.6139 4.19389C60.9392 4.33789 61.2299 4.53256 61.4859 4.77789V0.441895H63.4619V12.3299H62.2539ZM59.6219 10.8819C60.0325 10.8819 60.3819 10.7966 60.6699 10.6259C60.9579 10.4552 61.2299 10.2126 61.4859 9.89789V6.21789C61.2619 5.94589 61.0165 5.75389 60.7499 5.64189C60.4885 5.52989 60.2059 5.47389 59.9019 5.47389C59.6032 5.47389 59.3312 5.52989 59.0859 5.64189C58.8459 5.75389 58.6405 5.92456 58.4699 6.15389C58.3045 6.37789 58.1765 6.66589 58.0859 7.01789C57.9952 7.36456 57.9499 7.77523 57.9499 8.24989C57.9499 8.72989 57.9872 9.13789 58.0619 9.47389C58.1419 9.80456 58.2539 10.0766 58.3979 10.2899C58.5419 10.4979 58.7179 10.6499 58.9259 10.7459C59.1339 10.8366 59.3659 10.8819 59.6219 10.8819ZM69.1069 3.99389C69.7202 3.99389 70.2749 4.09256 70.7709 4.2899C71.2722 4.48723 71.6989 4.76723 72.0509 5.12989C72.4029 5.49256 72.6749 5.93523 72.8669 6.45789C73.0589 6.98056 73.1549 7.56456 73.1549 8.20989C73.1549 8.86056 73.0589 9.44723 72.8669 9.96989C72.6749 10.4926 72.4029 10.9379 72.0509 11.3059C71.6989 11.6739 71.2722 11.9566 70.7709 12.1539C70.2749 12.3512 69.7202 12.4499 69.1069 12.4499C68.4935 12.4499 67.9362 12.3512 67.4349 12.1539C66.9335 11.9566 66.5042 11.6739 66.1469 11.3059C65.7949 10.9379 65.5202 10.4926 65.3229 9.96989C65.1309 9.44723 65.0349 8.86056 65.0349 8.20989C65.0349 7.56456 65.1309 6.98056 65.3229 6.45789C65.5202 5.93523 65.7949 5.49256 66.1469 5.12989C66.5042 4.76723 66.9335 4.48723 67.4349 4.2899C67.9362 4.09256 68.4935 3.99389 69.1069 3.99389ZM69.1069 10.9299C69.7895 10.9299 70.2935 10.7006 70.6189 10.2419C70.9495 9.78323 71.1149 9.11123 71.1149 8.22589C71.1149 7.34056 70.9495 6.66589 70.6189 6.20189C70.2935 5.73789 69.7895 5.50589 69.1069 5.50589C68.4135 5.50589 67.9015 5.74056 67.5709 6.20989C67.2402 6.67389 67.0749 7.34589 67.0749 8.22589C67.0749 9.10589 67.2402 9.77789 67.5709 10.2419C67.9015 10.7006 68.4135 10.9299 69.1069 10.9299ZM76.8006 4.12189V12.3299H74.8246V4.12189H76.8006ZM77.0966 1.72989C77.0966 1.90056 77.062 2.06056 76.9926 2.20989C76.9233 2.35923 76.83 2.48989 76.7126 2.60189C76.6006 2.71389 76.4673 2.80456 76.3126 2.87389C76.158 2.93789 75.9926 2.96989 75.8166 2.96989C75.646 2.96989 75.4833 2.93789 75.3286 2.87389C75.1793 2.80456 75.0486 2.71389 74.9366 2.60189C74.8246 2.48989 74.734 2.35923 74.6646 2.20989C74.6006 2.06056 74.5686 1.90056 74.5686 1.72989C74.5686 1.55389 74.6006 1.38856 74.6646 1.23389C74.734 1.07923 74.8246 0.945895 74.9366 0.833895C75.0486 0.721895 75.1793 0.633895 75.3286 0.569895C75.4833 0.500561 75.646 0.465895 75.8166 0.465895C75.9926 0.465895 76.158 0.500561 76.3126 0.569895C76.4673 0.633895 76.6006 0.721895 76.7126 0.833895C76.83 0.945895 76.9233 1.07923 76.9926 1.23389C77.062 1.38856 77.0966 1.55389 77.0966 1.72989ZM79.0404 12.3299V4.12189H80.2484C80.5044 4.12189 80.6724 4.24189 80.7524 4.48189L80.8884 5.12989C81.0537 4.95923 81.227 4.80456 81.4084 4.66589C81.595 4.52723 81.7897 4.40723 81.9924 4.30589C82.2004 4.20456 82.4217 4.12723 82.6564 4.07389C82.891 4.02056 83.147 3.99389 83.4244 3.99389C83.8724 3.99389 84.2697 4.07123 84.6164 4.22589C84.963 4.37523 85.251 4.58856 85.4804 4.86589C85.715 5.13789 85.891 5.46589 86.0084 5.84989C86.131 6.22856 86.1924 6.64723 86.1924 7.10589V12.3299H84.2164V7.10589C84.2164 6.60456 84.099 6.21789 83.8644 5.94589C83.635 5.66856 83.2884 5.52989 82.8244 5.52989C82.483 5.52989 82.163 5.60723 81.8644 5.76189C81.5657 5.91656 81.283 6.12723 81.0164 6.39389V12.3299H79.0404ZM90.9741 3.97789C91.3261 3.97789 91.6568 4.01523 91.9661 4.08989C92.2755 4.15923 92.5581 4.26323 92.8141 4.40189H95.1741V5.13789C95.1741 5.26056 95.1421 5.35656 95.0781 5.42589C95.0141 5.49523 94.9048 5.54323 94.7501 5.56989L94.0141 5.70589C94.0675 5.84456 94.1075 5.99123 94.1341 6.14589C94.1661 6.30056 94.1821 6.46323 94.1821 6.63389C94.1821 7.03923 94.0995 7.40723 93.9341 7.7379C93.7741 8.06323 93.5501 8.34056 93.2621 8.56989C92.9795 8.79923 92.6408 8.97789 92.2461 9.10589C91.8568 9.22856 91.4328 9.28989 90.9741 9.28989C90.6648 9.28989 90.3635 9.26056 90.0701 9.20189C89.8141 9.35656 89.6861 9.52989 89.6861 9.72189C89.6861 9.88723 89.7608 10.0099 89.9101 10.0899C90.0648 10.1646 90.2648 10.2179 90.5101 10.2499C90.7608 10.2819 91.0435 10.3032 91.3581 10.3139C91.6728 10.3192 91.9955 10.3352 92.3261 10.3619C92.6568 10.3886 92.9795 10.4366 93.2941 10.5059C93.6088 10.5699 93.8888 10.6739 94.1341 10.8179C94.3848 10.9619 94.5848 11.1592 94.7341 11.4099C94.8888 11.6552 94.9661 11.9726 94.9661 12.3619C94.9661 12.7246 94.8755 13.0766 94.6941 13.4179C94.5181 13.7592 94.2595 14.0632 93.9181 14.3299C93.5821 14.5966 93.1688 14.8099 92.6781 14.9699C92.1875 15.1352 91.6275 15.2179 90.9981 15.2179C90.3741 15.2179 89.8328 15.1566 89.3741 15.0339C88.9155 14.9166 88.5341 14.7566 88.2301 14.5539C87.9315 14.3566 87.7075 14.1272 87.5581 13.8659C87.4088 13.6046 87.3341 13.3326 87.3341 13.0499C87.3341 12.6659 87.4515 12.3432 87.6861 12.0819C87.9208 11.8206 88.2461 11.6126 88.6621 11.4579C88.4595 11.3459 88.2968 11.1966 88.1741 11.0099C88.0515 10.8232 87.9901 10.5806 87.9901 10.2819C87.9901 10.1592 88.0115 10.0339 88.0541 9.90589C88.0968 9.77256 88.1608 9.64189 88.2461 9.51389C88.3368 9.38589 88.4488 9.26589 88.5821 9.15389C88.7155 9.03656 88.8728 8.93256 89.0541 8.84189C88.6381 8.61789 88.3101 8.31923 88.0701 7.94589C87.8355 7.57256 87.7181 7.13523 87.7181 6.63389C87.7181 6.22856 87.7981 5.86323 87.9581 5.53789C88.1235 5.20723 88.3501 4.92723 88.6381 4.69789C88.9315 4.46323 89.2755 4.28456 89.6701 4.16189C90.0701 4.03923 90.5048 3.97789 90.9741 3.97789ZM93.1421 12.6979C93.1421 12.5379 93.0941 12.4072 92.9981 12.3059C92.9021 12.2046 92.7715 12.1272 92.6061 12.0739C92.4408 12.0152 92.2461 11.9726 92.0221 11.9459C91.8035 11.9192 91.5688 11.9006 91.3181 11.8899C91.0728 11.8739 90.8168 11.8606 90.5501 11.8499C90.2888 11.8339 90.0355 11.8099 89.7901 11.7779C89.5661 11.9006 89.3848 12.0472 89.2461 12.2179C89.1128 12.3832 89.0461 12.5752 89.0461 12.7939C89.0461 12.9379 89.0808 13.0712 89.1501 13.1939C89.2248 13.3219 89.3395 13.4312 89.4941 13.5219C89.6541 13.6126 89.8595 13.6819 90.1101 13.7299C90.3608 13.7832 90.6675 13.8099 91.0301 13.8099C91.3981 13.8099 91.7155 13.7806 91.9821 13.7219C92.2488 13.6686 92.4675 13.5912 92.6381 13.4899C92.8141 13.3939 92.9421 13.2766 93.0221 13.1379C93.1021 13.0046 93.1421 12.8579 93.1421 12.6979ZM90.9741 8.02589C91.2195 8.02589 91.4328 7.99389 91.6141 7.92989C91.7955 7.86056 91.9448 7.76723 92.0621 7.64989C92.1848 7.53256 92.2755 7.39123 92.3341 7.22589C92.3981 7.06056 92.4301 6.87923 92.4301 6.68189C92.4301 6.27656 92.3075 5.95656 92.0621 5.72189C91.8221 5.48189 91.4595 5.36189 90.9741 5.36189C90.4888 5.36189 90.1235 5.48189 89.8781 5.72189C89.6381 5.95656 89.5181 6.27656 89.5181 6.68189C89.5181 6.87389 89.5475 7.05256 89.6061 7.21789C89.6701 7.38323 89.7608 7.52723 89.8781 7.64989C90.0008 7.76723 90.1528 7.86056 90.3341 7.92989C90.5208 7.99389 90.7341 8.02589 90.9741 8.02589ZM99.5091 12.3299V4.12189H100.669C100.872 4.12189 101.013 4.15923 101.093 4.23389C101.173 4.30856 101.226 4.43656 101.253 4.61789L101.373 5.60989C101.666 5.10323 102.01 4.70323 102.405 4.40989C102.8 4.11656 103.242 3.96989 103.733 3.96989C104.138 3.96989 104.474 4.06323 104.741 4.2499L104.485 5.72989C104.469 5.82589 104.434 5.89523 104.381 5.93789C104.328 5.97523 104.256 5.99389 104.165 5.99389C104.085 5.99389 103.976 5.97523 103.837 5.93789C103.698 5.90056 103.514 5.88189 103.285 5.88189C102.874 5.88189 102.522 5.99656 102.229 6.22589C101.936 6.44989 101.688 6.78056 101.485 7.21789V12.3299H99.5091ZM109.544 3.99389C110.158 3.99389 110.712 4.09256 111.208 4.2899C111.71 4.48723 112.136 4.76723 112.488 5.12989C112.84 5.49256 113.112 5.93523 113.304 6.45789C113.496 6.98056 113.592 7.56456 113.592 8.20989C113.592 8.86056 113.496 9.44723 113.304 9.96989C113.112 10.4926 112.84 10.9379 112.488 11.3059C112.136 11.6739 111.71 11.9566 111.208 12.1539C110.712 12.3512 110.158 12.4499 109.544 12.4499C108.931 12.4499 108.374 12.3512 107.872 12.1539C107.371 11.9566 106.942 11.6739 106.584 11.3059C106.232 10.9379 105.958 10.4926 105.76 9.96989C105.568 9.44723 105.472 8.86056 105.472 8.20989C105.472 7.56456 105.568 6.98056 105.76 6.45789C105.958 5.93523 106.232 5.49256 106.584 5.12989C106.942 4.76723 107.371 4.48723 107.872 4.2899C108.374 4.09256 108.931 3.99389 109.544 3.99389ZM109.544 10.9299C110.227 10.9299 110.731 10.7006 111.056 10.2419C111.387 9.78323 111.552 9.11123 111.552 8.22589C111.552 7.34056 111.387 6.66589 111.056 6.20189C110.731 5.73789 110.227 5.50589 109.544 5.50589C108.851 5.50589 108.339 5.74056 108.008 6.20989C107.678 6.67389 107.512 7.34589 107.512 8.22589C107.512 9.10589 107.678 9.77789 108.008 10.2419C108.339 10.7006 108.851 10.9299 109.544 10.9299ZM116.942 4.12189V9.33789C116.942 9.83923 117.057 10.2286 117.286 10.5059C117.521 10.7779 117.87 10.9139 118.334 10.9139C118.675 10.9139 118.995 10.8392 119.294 10.6899C119.593 10.5352 119.875 10.3246 120.142 10.0579V4.12189H122.118V12.3299H120.91C120.654 12.3299 120.486 12.2099 120.406 11.9699L120.27 11.3139C120.099 11.4846 119.923 11.6419 119.742 11.7859C119.561 11.9246 119.366 12.0446 119.158 12.1459C118.955 12.2419 118.734 12.3166 118.494 12.3699C118.259 12.4286 118.006 12.4579 117.734 12.4579C117.286 12.4579 116.889 12.3832 116.542 12.2339C116.201 12.0792 115.913 11.8632 115.678 11.5859C115.443 11.3086 115.265 10.9806 115.142 10.6019C115.025 10.2179 114.966 9.79656 114.966 9.33789V4.12189H116.942ZM126.924 12.4579C126.215 12.4579 125.668 12.2579 125.284 11.8579C124.9 11.4526 124.708 10.8952 124.708 10.1859V5.60189H123.876C123.769 5.60189 123.676 5.56723 123.596 5.49789C123.521 5.42856 123.484 5.32456 123.484 5.18589V4.40189L124.804 4.18589L125.22 1.94589C125.241 1.83923 125.289 1.75656 125.364 1.69789C125.444 1.63923 125.543 1.60989 125.66 1.60989H126.684V4.19389H128.844V5.60189H126.684V10.0499C126.684 10.3059 126.748 10.5059 126.876 10.6499C127.004 10.7939 127.175 10.8659 127.388 10.8659C127.511 10.8659 127.612 10.8526 127.692 10.8259C127.777 10.7939 127.849 10.7619 127.908 10.7299C127.972 10.6979 128.028 10.6686 128.076 10.6419C128.124 10.6099 128.172 10.5939 128.22 10.5939C128.279 10.5939 128.327 10.6099 128.364 10.6419C128.401 10.6686 128.441 10.7112 128.484 10.7699L129.076 11.7299C128.788 11.9699 128.457 12.1512 128.084 12.2739C127.711 12.3966 127.324 12.4579 126.924 12.4579ZM132.519 4.12189V12.3299H130.543V4.12189H132.519ZM132.815 1.72989C132.815 1.90056 132.781 2.06056 132.711 2.20989C132.642 2.35923 132.549 2.48989 132.431 2.60189C132.319 2.71389 132.186 2.80456 132.031 2.87389C131.877 2.93789 131.711 2.96989 131.535 2.96989C131.365 2.96989 131.202 2.93789 131.047 2.87389C130.898 2.80456 130.767 2.71389 130.655 2.60189C130.543 2.48989 130.453 2.35923 130.383 2.20989C130.319 2.06056 130.287 1.90056 130.287 1.72989C130.287 1.55389 130.319 1.38856 130.383 1.23389C130.453 1.07923 130.543 0.945895 130.655 0.833895C130.767 0.721895 130.898 0.633895 131.047 0.569895C131.202 0.500561 131.365 0.465895 131.535 0.465895C131.711 0.465895 131.877 0.500561 132.031 0.569895C132.186 0.633895 132.319 0.721895 132.431 0.833895C132.549 0.945895 132.642 1.07923 132.711 1.23389C132.781 1.38856 132.815 1.55389 132.815 1.72989ZM134.759 12.3299V4.12189H135.967C136.223 4.12189 136.391 4.24189 136.471 4.48189L136.607 5.12989C136.772 4.95923 136.946 4.80456 137.127 4.66589C137.314 4.52723 137.508 4.40723 137.711 4.30589C137.919 4.20456 138.14 4.12723 138.375 4.07389C138.61 4.02056 138.866 3.99389 139.143 3.99389C139.591 3.99389 139.988 4.07123 140.335 4.22589C140.682 4.37523 140.97 4.58856 141.199 4.86589C141.434 5.13789 141.61 5.46589 141.727 5.84989C141.85 6.22856 141.911 6.64723 141.911 7.10589V12.3299H139.935V7.10589C139.935 6.60456 139.818 6.21789 139.583 5.94589C139.354 5.66856 139.007 5.52989 138.543 5.52989C138.202 5.52989 137.882 5.60723 137.583 5.76189C137.284 5.91656 137.002 6.12723 136.735 6.39389V12.3299H134.759ZM147.245 3.99389C147.762 3.99389 148.237 4.07656 148.669 4.24189C149.106 4.40723 149.482 4.64989 149.797 4.96989C150.112 5.28456 150.357 5.67389 150.533 6.13789C150.709 6.59656 150.797 7.12189 150.797 7.71389C150.797 7.86323 150.789 7.98856 150.773 8.08989C150.762 8.18589 150.738 8.26323 150.701 8.32189C150.669 8.37523 150.624 8.41523 150.565 8.44189C150.506 8.46323 150.432 8.47389 150.341 8.47389H145.269C145.328 9.31656 145.554 9.93523 145.949 10.3299C146.344 10.7246 146.866 10.9219 147.517 10.9219C147.837 10.9219 148.112 10.8846 148.341 10.8099C148.576 10.7352 148.778 10.6526 148.949 10.5619C149.125 10.4712 149.277 10.3886 149.405 10.3139C149.538 10.2392 149.666 10.2019 149.789 10.2019C149.869 10.2019 149.938 10.2179 149.997 10.2499C150.056 10.2819 150.106 10.3272 150.149 10.3859L150.725 11.1059C150.506 11.3619 150.261 11.5779 149.989 11.7539C149.717 11.9246 149.432 12.0632 149.133 12.1699C148.84 12.2712 148.538 12.3432 148.229 12.3859C147.925 12.4286 147.629 12.4499 147.341 12.4499C146.77 12.4499 146.24 12.3566 145.749 12.1699C145.258 11.9779 144.832 11.6979 144.469 11.3299C144.106 10.9566 143.821 10.4979 143.613 9.95389C143.405 9.40456 143.301 8.76989 143.301 8.04989C143.301 7.48989 143.392 6.96456 143.573 6.47389C143.754 5.97789 144.013 5.54856 144.349 5.18589C144.69 4.81789 145.104 4.52723 145.589 4.31389C146.08 4.10056 146.632 3.99389 147.245 3.99389ZM147.285 5.40989C146.709 5.40989 146.258 5.57256 145.933 5.89789C145.608 6.22323 145.4 6.68456 145.309 7.28189H149.021C149.021 7.02589 148.986 6.78589 148.917 6.56189C148.848 6.33256 148.741 6.13256 148.597 5.96189C148.453 5.79123 148.272 5.65789 148.053 5.56189C147.834 5.46056 147.578 5.40989 147.285 5.40989ZM155.493 12.3299V4.12189H156.702C156.958 4.12189 157.126 4.24189 157.206 4.48189L157.334 5.08989C157.478 4.92989 157.627 4.78323 157.782 4.64989C157.942 4.51656 158.11 4.40189 158.286 4.30589C158.467 4.20989 158.659 4.13523 158.862 4.08189C159.07 4.02323 159.296 3.99389 159.542 3.99389C160.059 3.99389 160.483 4.13523 160.814 4.41789C161.15 4.69523 161.4 5.06589 161.566 5.52989C161.694 5.25789 161.854 5.02589 162.046 4.83389C162.238 4.63656 162.448 4.47656 162.678 4.35389C162.907 4.23123 163.15 4.14056 163.406 4.08189C163.667 4.02323 163.928 3.99389 164.19 3.99389C164.643 3.99389 165.046 4.06323 165.398 4.20189C165.75 4.34056 166.046 4.54323 166.286 4.80989C166.526 5.07656 166.707 5.40189 166.83 5.78589C166.958 6.16989 167.022 6.60989 167.022 7.10589V12.3299H165.046V7.10589C165.046 6.58323 164.931 6.19123 164.702 5.92989C164.472 5.66323 164.136 5.52989 163.694 5.52989C163.491 5.52989 163.302 5.56456 163.126 5.63389C162.955 5.70323 162.803 5.80456 162.67 5.93789C162.542 6.06589 162.44 6.22856 162.366 6.42589C162.291 6.62323 162.254 6.84989 162.254 7.10589V12.3299H160.27V7.10589C160.27 6.55656 160.158 6.15656 159.934 5.90589C159.715 5.65523 159.39 5.52989 158.957 5.52989C158.675 5.52989 158.408 5.60189 158.158 5.74589C157.912 5.88456 157.683 6.07656 157.47 6.32189V12.3299H155.493ZM175.394 12.3299H174.506C174.32 12.3299 174.173 12.3032 174.066 12.2499C173.96 12.1912 173.88 12.0766 173.826 11.9059L173.65 11.3219C173.442 11.5086 173.237 11.6739 173.034 11.8179C172.837 11.9566 172.632 12.0739 172.418 12.1699C172.205 12.2659 171.978 12.3379 171.738 12.3859C171.498 12.4339 171.232 12.4579 170.938 12.4579C170.592 12.4579 170.272 12.4126 169.978 12.3219C169.685 12.2259 169.432 12.0846 169.218 11.8979C169.01 11.7112 168.848 11.4792 168.73 11.2019C168.613 10.9246 168.554 10.6019 168.554 10.2339C168.554 9.92456 168.634 9.62056 168.794 9.32189C168.96 9.01789 169.232 8.74589 169.61 8.50589C169.989 8.26056 170.493 8.05789 171.122 7.89789C171.752 7.73789 172.533 7.64723 173.466 7.6259V7.1459C173.466 6.59656 173.349 6.19123 173.114 5.92989C172.885 5.66323 172.549 5.52989 172.106 5.52989C171.786 5.52989 171.52 5.56723 171.306 5.64189C171.093 5.71656 170.906 5.80189 170.746 5.89789C170.592 5.98856 170.448 6.07123 170.314 6.14589C170.181 6.22056 170.034 6.25789 169.874 6.25789C169.741 6.25789 169.626 6.22323 169.53 6.15389C169.434 6.08456 169.357 5.99923 169.298 5.89789L168.938 5.26589C169.882 4.40189 171.021 3.96989 172.354 3.96989C172.834 3.96989 173.261 4.04989 173.634 4.20989C174.013 4.36456 174.333 4.58323 174.594 4.86589C174.856 5.14323 175.053 5.47656 175.186 5.86589C175.325 6.25523 175.394 6.68189 175.394 7.1459V12.3299ZM171.554 11.0979C171.757 11.0979 171.944 11.0792 172.114 11.0419C172.285 11.0046 172.445 10.9486 172.594 10.8739C172.749 10.7992 172.896 10.7086 173.034 10.6019C173.178 10.4899 173.322 10.3592 173.466 10.2099V8.82589C172.89 8.85256 172.408 8.90323 172.018 8.97789C171.634 9.04723 171.325 9.13789 171.09 9.24989C170.856 9.36189 170.688 9.49256 170.586 9.64189C170.49 9.79123 170.442 9.95389 170.442 10.1299C170.442 10.4766 170.544 10.7246 170.746 10.8739C170.954 11.0232 171.224 11.0979 171.554 11.0979ZM179.441 4.12189V12.3299H177.465V4.12189H179.441ZM179.737 1.72989C179.737 1.90056 179.703 2.06056 179.633 2.20989C179.564 2.35923 179.471 2.48989 179.353 2.60189C179.241 2.71389 179.108 2.80456 178.953 2.87389C178.799 2.93789 178.633 2.96989 178.457 2.96989C178.287 2.96989 178.124 2.93789 177.969 2.87389C177.82 2.80456 177.689 2.71389 177.577 2.60189C177.465 2.48989 177.375 2.35923 177.305 2.20989C177.241 2.06056 177.209 1.90056 177.209 1.72989C177.209 1.55389 177.241 1.38856 177.305 1.23389C177.375 1.07923 177.465 0.945895 177.577 0.833895C177.689 0.721895 177.82 0.633895 177.969 0.569895C178.124 0.500561 178.287 0.465895 178.457 0.465895C178.633 0.465895 178.799 0.500561 178.953 0.569895C179.108 0.633895 179.241 0.721895 179.353 0.833895C179.471 0.945895 179.564 1.07923 179.633 1.23389C179.703 1.38856 179.737 1.55389 179.737 1.72989ZM181.681 12.3299V4.12189H182.889C183.145 4.12189 183.313 4.24189 183.393 4.48189L183.529 5.12989C183.694 4.95923 183.868 4.80456 184.049 4.66589C184.236 4.52723 184.43 4.40723 184.633 4.30589C184.841 4.20456 185.062 4.12723 185.297 4.07389C185.532 4.02056 185.788 3.99389 186.065 3.99389C186.513 3.99389 186.91 4.07123 187.257 4.22589C187.604 4.37523 187.892 4.58856 188.121 4.86589C188.356 5.13789 188.532 5.46589 188.649 5.84989C188.772 6.22856 188.833 6.64723 188.833 7.10589V12.3299H186.857V7.10589C186.857 6.60456 186.74 6.21789 186.505 5.94589C186.276 5.66856 185.929 5.52989 185.465 5.52989C185.124 5.52989 184.804 5.60723 184.505 5.76189C184.206 5.91656 183.924 6.12723 183.657 6.39389V12.3299H181.681ZM193.471 12.4579C192.761 12.4579 192.215 12.2579 191.831 11.8579C191.447 11.4526 191.255 10.8952 191.255 10.1859V5.60189H190.423C190.316 5.60189 190.223 5.56723 190.143 5.49789C190.068 5.42856 190.031 5.32456 190.031 5.18589V4.40189L191.351 4.18589L191.767 1.94589C191.788 1.83923 191.836 1.75656 191.911 1.69789C191.991 1.63923 192.089 1.60989 192.207 1.60989H193.231V4.19389H195.391V5.60189H193.231V10.0499C193.231 10.3059 193.295 10.5059 193.423 10.6499C193.551 10.7939 193.721 10.8659 193.935 10.8659C194.057 10.8659 194.159 10.8526 194.239 10.8259C194.324 10.7939 194.396 10.7619 194.455 10.7299C194.519 10.6979 194.575 10.6686 194.623 10.6419C194.671 10.6099 194.719 10.5939 194.767 10.5939C194.825 10.5939 194.873 10.6099 194.911 10.6419C194.948 10.6686 194.988 10.7112 195.031 10.7699L195.623 11.7299C195.335 11.9699 195.004 12.1512 194.631 12.2739C194.257 12.3966 193.871 12.4579 193.471 12.4579ZM200.354 3.99389C200.872 3.99389 201.346 4.07656 201.778 4.24189C202.216 4.40723 202.592 4.64989 202.906 4.96989C203.221 5.28456 203.466 5.67389 203.642 6.13789C203.818 6.59656 203.906 7.12189 203.906 7.71389C203.906 7.86323 203.898 7.98856 203.882 8.08989C203.872 8.18589 203.848 8.26323 203.81 8.32189C203.778 8.37523 203.733 8.41523 203.674 8.44189C203.616 8.46323 203.541 8.47389 203.45 8.47389H198.378C198.437 9.31656 198.664 9.93523 199.058 10.3299C199.453 10.7246 199.976 10.9219 200.626 10.9219C200.946 10.9219 201.221 10.8846 201.45 10.8099C201.685 10.7352 201.888 10.6526 202.058 10.5619C202.234 10.4712 202.386 10.3886 202.514 10.3139C202.648 10.2392 202.776 10.2019 202.898 10.2019C202.978 10.2019 203.048 10.2179 203.106 10.2499C203.165 10.2819 203.216 10.3272 203.258 10.3859L203.834 11.1059C203.616 11.3619 203.37 11.5779 203.098 11.7539C202.826 11.9246 202.541 12.0632 202.242 12.1699C201.949 12.2712 201.648 12.3432 201.338 12.3859C201.034 12.4286 200.738 12.4499 200.45 12.4499C199.88 12.4499 199.349 12.3566 198.858 12.1699C198.368 11.9779 197.941 11.6979 197.578 11.3299C197.216 10.9566 196.93 10.4979 196.722 9.95389C196.514 9.40456 196.41 8.76989 196.41 8.04989C196.41 7.48989 196.501 6.96456 196.682 6.47389C196.864 5.97789 197.122 5.54856 197.458 5.18589C197.8 4.81789 198.213 4.52723 198.698 4.31389C199.189 4.10056 199.741 3.99389 200.354 3.99389ZM200.394 5.40989C199.818 5.40989 199.368 5.57256 199.042 5.89789C198.717 6.22323 198.509 6.68456 198.418 7.28189H202.13C202.13 7.02589 202.096 6.78589 202.026 6.56189C201.957 6.33256 201.85 6.13256 201.706 5.96189C201.562 5.79123 201.381 5.65789 201.162 5.56189C200.944 5.46056 200.688 5.40989 200.394 5.40989ZM205.509 12.3299V4.12189H206.717C206.973 4.12189 207.141 4.24189 207.221 4.48189L207.357 5.12989C207.522 4.95923 207.696 4.80456 207.877 4.66589C208.064 4.52723 208.258 4.40723 208.461 4.30589C208.669 4.20456 208.89 4.12723 209.125 4.07389C209.36 4.02056 209.616 3.99389 209.893 3.99389C210.341 3.99389 210.738 4.07123 211.085 4.22589C211.432 4.37523 211.72 4.58856 211.949 4.86589C212.184 5.13789 212.36 5.46589 212.477 5.84989C212.6 6.22856 212.661 6.64723 212.661 7.10589V12.3299H210.685V7.10589C210.685 6.60456 210.568 6.21789 210.333 5.94589C210.104 5.66856 209.757 5.52989 209.293 5.52989C208.952 5.52989 208.632 5.60723 208.333 5.76189C208.034 5.91656 207.752 6.12723 207.485 6.39389V12.3299H205.509ZM221.035 12.3299H220.147C219.96 12.3299 219.814 12.3032 219.707 12.2499C219.6 12.1912 219.52 12.0766 219.467 11.9059L219.291 11.3219C219.083 11.5086 218.878 11.6739 218.675 11.8179C218.478 11.9566 218.272 12.0739 218.059 12.1699C217.846 12.2659 217.619 12.3379 217.379 12.3859C217.139 12.4339 216.872 12.4579 216.579 12.4579C216.232 12.4579 215.912 12.4126 215.619 12.3219C215.326 12.2259 215.072 12.0846 214.859 11.8979C214.651 11.7112 214.488 11.4792 214.371 11.2019C214.254 10.9246 214.195 10.6019 214.195 10.2339C214.195 9.92456 214.275 9.62056 214.435 9.32189C214.6 9.01789 214.872 8.74589 215.251 8.50589C215.63 8.26056 216.134 8.05789 216.763 7.89789C217.392 7.73789 218.174 7.64723 219.107 7.6259V7.1459C219.107 6.59656 218.99 6.19123 218.755 5.92989C218.526 5.66323 218.19 5.52989 217.747 5.52989C217.427 5.52989 217.16 5.56723 216.947 5.64189C216.734 5.71656 216.547 5.80189 216.387 5.89789C216.232 5.98856 216.088 6.07123 215.955 6.14589C215.822 6.22056 215.675 6.25789 215.515 6.25789C215.382 6.25789 215.267 6.22323 215.171 6.15389C215.075 6.08456 214.998 5.99923 214.939 5.89789L214.579 5.26589C215.523 4.40189 216.662 3.96989 217.995 3.96989C218.475 3.96989 218.902 4.04989 219.275 4.20989C219.654 4.36456 219.974 4.58323 220.235 4.86589C220.496 5.14323 220.694 5.47656 220.827 5.86589C220.966 6.25523 221.035 6.68189 221.035 7.1459V12.3299ZM217.195 11.0979C217.398 11.0979 217.584 11.0792 217.755 11.0419C217.926 11.0046 218.086 10.9486 218.235 10.8739C218.39 10.7992 218.536 10.7086 218.675 10.6019C218.819 10.4899 218.963 10.3592 219.107 10.2099V8.82589C218.531 8.85256 218.048 8.90323 217.659 8.97789C217.275 9.04723 216.966 9.13789 216.731 9.24989C216.496 9.36189 216.328 9.49256 216.227 9.64189C216.131 9.79123 216.083 9.95389 216.083 10.1299C216.083 10.4766 216.184 10.7246 216.387 10.8739C216.595 11.0232 216.864 11.0979 217.195 11.0979ZM222.978 12.3299V4.12189H224.186C224.442 4.12189 224.61 4.24189 224.69 4.48189L224.826 5.12989C224.991 4.95923 225.165 4.80456 225.346 4.66589C225.533 4.52723 225.727 4.40723 225.93 4.30589C226.138 4.20456 226.359 4.12723 226.594 4.07389C226.829 4.02056 227.085 3.99389 227.362 3.99389C227.81 3.99389 228.207 4.07123 228.554 4.22589C228.901 4.37523 229.189 4.58856 229.418 4.86589C229.653 5.13789 229.829 5.46589 229.946 5.84989C230.069 6.22856 230.13 6.64723 230.13 7.10589V12.3299H228.154V7.10589C228.154 6.60456 228.037 6.21789 227.802 5.94589C227.573 5.66856 227.226 5.52989 226.762 5.52989C226.421 5.52989 226.101 5.60723 225.802 5.76189C225.503 5.91656 225.221 6.12723 224.954 6.39389V12.3299H222.978ZM237.84 5.85789C237.781 5.93256 237.722 5.99123 237.664 6.03389C237.61 6.07656 237.53 6.09789 237.424 6.09789C237.322 6.09789 237.224 6.06856 237.128 6.00989C237.032 5.94589 236.917 5.87656 236.784 5.80189C236.65 5.72189 236.49 5.65256 236.304 5.59389C236.122 5.52989 235.896 5.49789 235.624 5.49789C235.277 5.49789 234.973 5.56189 234.712 5.68989C234.45 5.81256 234.232 5.99123 234.056 6.22589C233.885 6.46056 233.757 6.74589 233.672 7.08189C233.586 7.41256 233.544 7.78856 233.544 8.20989C233.544 8.64723 233.589 9.03656 233.68 9.37789C233.776 9.71923 233.912 10.0072 234.088 10.2419C234.264 10.4712 234.477 10.6472 234.728 10.7699C234.978 10.8872 235.261 10.9459 235.576 10.9459C235.89 10.9459 236.144 10.9086 236.336 10.8339C236.533 10.7539 236.698 10.6686 236.832 10.5779C236.965 10.4819 237.08 10.3966 237.176 10.3219C237.277 10.2419 237.389 10.2019 237.512 10.2019C237.672 10.2019 237.792 10.2632 237.872 10.3859L238.44 11.1059C238.221 11.3619 237.984 11.5779 237.728 11.7539C237.472 11.9246 237.205 12.0632 236.928 12.1699C236.656 12.2712 236.373 12.3432 236.08 12.3859C235.786 12.4286 235.496 12.4499 235.208 12.4499C234.701 12.4499 234.224 12.3566 233.776 12.1699C233.328 11.9779 232.936 11.7006 232.6 11.3379C232.269 10.9752 232.005 10.5326 231.808 10.0099C231.616 9.48189 231.52 8.88189 231.52 8.20989C231.52 7.60723 231.605 7.04989 231.776 6.53789C231.952 6.02056 232.208 5.57523 232.544 5.20189C232.88 4.82323 233.296 4.52723 233.792 4.31389C234.288 4.10056 234.858 3.99389 235.504 3.99389C236.117 3.99389 236.653 4.09256 237.112 4.2899C237.576 4.48723 237.992 4.76989 238.36 5.13789L237.84 5.85789ZM243.089 3.99389C243.606 3.99389 244.081 4.07656 244.513 4.24189C244.95 4.40723 245.326 4.64989 245.641 4.96989C245.955 5.28456 246.201 5.67389 246.377 6.13789C246.553 6.59656 246.641 7.12189 246.641 7.71389C246.641 7.86323 246.633 7.98856 246.617 8.08989C246.606 8.18589 246.582 8.26323 246.545 8.32189C246.513 8.37523 246.467 8.41523 246.409 8.44189C246.35 8.46323 246.275 8.47389 246.185 8.47389H241.113C241.171 9.31656 241.398 9.93523 241.793 10.3299C242.187 10.7246 242.71 10.9219 243.361 10.9219C243.681 10.9219 243.955 10.8846 244.185 10.8099C244.419 10.7352 244.622 10.6526 244.793 10.5619C244.969 10.4712 245.121 10.3886 245.249 10.3139C245.382 10.2392 245.51 10.2019 245.633 10.2019C245.713 10.2019 245.782 10.2179 245.841 10.2499C245.899 10.2819 245.95 10.3272 245.993 10.3859L246.569 11.1059C246.35 11.3619 246.105 11.5779 245.833 11.7539C245.561 11.9246 245.275 12.0632 244.977 12.1699C244.683 12.2712 244.382 12.3432 244.073 12.3859C243.769 12.4286 243.473 12.4499 243.185 12.4499C242.614 12.4499 242.083 12.3566 241.593 12.1699C241.102 11.9779 240.675 11.6979 240.313 11.3299C239.95 10.9566 239.665 10.4979 239.457 9.95389C239.249 9.40456 239.145 8.76989 239.145 8.04989C239.145 7.48989 239.235 6.96456 239.417 6.47389C239.598 5.97789 239.857 5.54856 240.193 5.18589C240.534 4.81789 240.947 4.52723 241.433 4.31389C241.923 4.10056 242.475 3.99389 243.089 3.99389ZM243.129 5.40989C242.553 5.40989 242.102 5.57256 241.777 5.89789C241.451 6.22323 241.243 6.68456 241.153 7.28189H244.865C244.865 7.02589 244.83 6.78589 244.761 6.56189C244.691 6.33256 244.585 6.13256 244.441 5.96189C244.297 5.79123 244.115 5.65789 243.897 5.56189C243.678 5.46056 243.422 5.40989 243.129 5.40989ZM58.9942 36.4579C58.2849 36.4579 57.7382 36.2579 57.3542 35.8579C56.9702 35.4526 56.7782 34.8952 56.7782 34.1859V29.6019H55.9462C55.8395 29.6019 55.7462 29.5672 55.6662 29.4979C55.5915 29.4286 55.5542 29.3246 55.5542 29.1859V28.4019L56.8742 28.1859L57.2902 25.9459C57.3115 25.8392 57.3595 25.7566 57.4342 25.6979C57.5142 25.6392 57.6129 25.6099 57.7302 25.6099H58.7542V28.1939H60.9142V29.6019H58.7542V34.0499C58.7542 34.3059 58.8182 34.5059 58.9462 34.6499C59.0742 34.7939 59.2449 34.8659 59.4582 34.8659C59.5809 34.8659 59.6822 34.8526 59.7622 34.8259C59.8475 34.7939 59.9195 34.7619 59.9782 34.7299C60.0422 34.6979 60.0982 34.6686 60.1462 34.6419C60.1942 34.6099 60.2422 34.5939 60.2902 34.5939C60.3489 34.5939 60.3969 34.6099 60.4342 34.6419C60.4715 34.6686 60.5115 34.7112 60.5542 34.7699L61.1462 35.7299C60.8582 35.9699 60.5275 36.1512 60.1542 36.2739C59.7809 36.3966 59.3942 36.4579 58.9942 36.4579ZM65.9897 27.9939C66.603 27.9939 67.1577 28.0926 67.6537 28.2899C68.155 28.4872 68.5817 28.7672 68.9337 29.1299C69.2857 29.4926 69.5577 29.9352 69.7497 30.4579C69.9417 30.9806 70.0377 31.5646 70.0377 32.2099C70.0377 32.8606 69.9417 33.4472 69.7497 33.9699C69.5577 34.4926 69.2857 34.9379 68.9337 35.3059C68.5817 35.6739 68.155 35.9566 67.6537 36.1539C67.1577 36.3512 66.603 36.4499 65.9897 36.4499C65.3764 36.4499 64.819 36.3512 64.3177 36.1539C63.8164 35.9566 63.387 35.6739 63.0297 35.3059C62.6777 34.9379 62.403 34.4926 62.2057 33.9699C62.0137 33.4472 61.9177 32.8606 61.9177 32.2099C61.9177 31.5646 62.0137 30.9806 62.2057 30.4579C62.403 29.9352 62.6777 29.4926 63.0297 29.1299C63.387 28.7672 63.8164 28.4872 64.3177 28.2899C64.819 28.0926 65.3764 27.9939 65.9897 27.9939ZM65.9897 34.9299C66.6724 34.9299 67.1764 34.7006 67.5017 34.2419C67.8324 33.7832 67.9977 33.1112 67.9977 32.2259C67.9977 31.3406 67.8324 30.6659 67.5017 30.2019C67.1764 29.7379 66.6724 29.5059 65.9897 29.5059C65.2964 29.5059 64.7844 29.7406 64.4537 30.2099C64.123 30.6739 63.9577 31.3459 63.9577 32.2259C63.9577 33.1059 64.123 33.7779 64.4537 34.2419C64.7844 34.7006 65.2964 34.9299 65.9897 34.9299ZM79.5452 29.7219C79.4919 29.8072 79.4359 29.8686 79.3772 29.9059C79.3185 29.9379 79.2439 29.9539 79.1532 29.9539C79.0572 29.9539 78.9532 29.9272 78.8412 29.8739C78.7345 29.8206 78.6092 29.7619 78.4652 29.6979C78.3212 29.6286 78.1559 29.5672 77.9692 29.5139C77.7879 29.4606 77.5719 29.4339 77.3212 29.4339C76.9319 29.4339 76.6252 29.5166 76.4012 29.6819C76.1772 29.8472 76.0652 30.0632 76.0652 30.3299C76.0652 30.5059 76.1212 30.6552 76.2332 30.7779C76.3505 30.8952 76.5025 30.9992 76.6892 31.0899C76.8812 31.1806 77.0972 31.2632 77.3372 31.3379C77.5772 31.4072 77.8225 31.4846 78.0732 31.5699C78.3239 31.6552 78.5692 31.7539 78.8092 31.8659C79.0492 31.9726 79.2625 32.1112 79.4492 32.2819C79.6412 32.4472 79.7932 32.6472 79.9052 32.8819C80.0225 33.1166 80.0812 33.3992 80.0812 33.7299C80.0812 34.1246 80.0092 34.4899 79.8652 34.8259C79.7212 35.1566 79.5105 35.4446 79.2332 35.6899C78.9559 35.9299 78.6119 36.1192 78.2012 36.2579C77.7959 36.3912 77.3292 36.4579 76.8012 36.4579C76.5185 36.4579 76.2412 36.4312 75.9692 36.3779C75.7025 36.3299 75.4439 36.2606 75.1932 36.1699C74.9479 36.0792 74.7185 35.9726 74.5052 35.8499C74.2972 35.7272 74.1132 35.5939 73.9532 35.4499L74.4092 34.6979C74.4679 34.6072 74.5372 34.5379 74.6172 34.4899C74.6972 34.4419 74.7985 34.4179 74.9212 34.4179C75.0439 34.4179 75.1585 34.4526 75.2652 34.5219C75.3772 34.5912 75.5052 34.6659 75.6492 34.7459C75.7932 34.8259 75.9612 34.9006 76.1532 34.9699C76.3505 35.0392 76.5985 35.0739 76.8972 35.0739C77.1319 35.0739 77.3319 35.0472 77.4972 34.9939C77.6679 34.9352 77.8065 34.8606 77.9132 34.7699C78.0252 34.6792 78.1052 34.5752 78.1532 34.4579C78.2065 34.3352 78.2332 34.2099 78.2332 34.0819C78.2332 33.8899 78.1745 33.7326 78.0572 33.6099C77.9452 33.4872 77.7932 33.3806 77.6012 33.2899C77.4145 33.1992 77.1985 33.1192 76.9532 33.0499C76.7132 32.9752 76.4652 32.8952 76.2092 32.8099C75.9585 32.7246 75.7105 32.6259 75.4652 32.5139C75.2252 32.3966 75.0092 32.2499 74.8172 32.0739C74.6305 31.8979 74.4785 31.6819 74.3612 31.4259C74.2492 31.1699 74.1932 30.8606 74.1932 30.4979C74.1932 30.1619 74.2599 29.8419 74.3932 29.5379C74.5265 29.2339 74.7212 28.9699 74.9772 28.7459C75.2385 28.5166 75.5612 28.3352 75.9452 28.2019C76.3345 28.0632 76.7825 27.9939 77.2892 27.9939C77.8545 27.9939 78.3692 28.0872 78.8332 28.2739C79.2972 28.4606 79.6839 28.7059 79.9932 29.0099L79.5452 29.7219ZM85.0496 27.9939C85.5669 27.9939 86.0416 28.0766 86.4736 28.2419C86.9109 28.4072 87.2869 28.6499 87.6016 28.9699C87.9162 29.2846 88.1616 29.6739 88.3376 30.1379C88.5136 30.5966 88.6016 31.1219 88.6016 31.7139C88.6016 31.8632 88.5936 31.9886 88.5776 32.0899C88.5669 32.1859 88.5429 32.2632 88.5056 32.3219C88.4736 32.3752 88.4282 32.4152 88.3696 32.4419C88.3109 32.4632 88.2362 32.4739 88.1456 32.4739H83.0736C83.1322 33.3166 83.3589 33.9352 83.7536 34.3299C84.1482 34.7246 84.6709 34.9219 85.3216 34.9219C85.6416 34.9219 85.9162 34.8846 86.1456 34.8099C86.3802 34.7352 86.5829 34.6526 86.7536 34.5619C86.9296 34.4712 87.0816 34.3886 87.2096 34.3139C87.3429 34.2392 87.4709 34.2019 87.5936 34.2019C87.6736 34.2019 87.7429 34.2179 87.8016 34.2499C87.8602 34.2819 87.9109 34.3272 87.9536 34.3859L88.5296 35.1059C88.3109 35.3619 88.0656 35.5779 87.7936 35.7539C87.5216 35.9246 87.2362 36.0632 86.9376 36.1699C86.6442 36.2712 86.3429 36.3432 86.0336 36.3859C85.7296 36.4286 85.4336 36.4499 85.1456 36.4499C84.5749 36.4499 84.0442 36.3566 83.5536 36.1699C83.0629 35.9779 82.6362 35.6979 82.2736 35.3299C81.9109 34.9566 81.6256 34.4979 81.4176 33.9539C81.2096 33.4046 81.1056 32.7699 81.1056 32.0499C81.1056 31.4899 81.1962 30.9646 81.3776 30.4739C81.5589 29.9779 81.8176 29.5486 82.1536 29.1859C82.4949 28.8179 82.9082 28.5272 83.3936 28.3139C83.8842 28.1006 84.4362 27.9939 85.0496 27.9939ZM85.0896 29.4099C84.5136 29.4099 84.0629 29.5726 83.7376 29.8979C83.4122 30.2232 83.2042 30.6846 83.1136 31.2819H86.8256C86.8256 31.0259 86.7909 30.7859 86.7216 30.5619C86.6522 30.3326 86.5456 30.1326 86.4016 29.9619C86.2576 29.7912 86.0762 29.6579 85.8576 29.5619C85.6389 29.4606 85.3829 29.4099 85.0896 29.4099ZM90.2044 36.3299V28.1219H91.3644C91.5671 28.1219 91.7084 28.1592 91.7884 28.2339C91.8684 28.3086 91.9218 28.4366 91.9484 28.6179L92.0684 29.6099C92.3618 29.1032 92.7058 28.7032 93.1004 28.4099C93.4951 28.1166 93.9378 27.9699 94.4284 27.9699C94.8338 27.9699 95.1698 28.0632 95.4364 28.2499L95.1804 29.7299C95.1644 29.8259 95.1298 29.8952 95.0764 29.9379C95.0231 29.9752 94.9511 29.9939 94.8604 29.9939C94.7804 29.9939 94.6711 29.9752 94.5324 29.9379C94.3938 29.9006 94.2098 29.8819 93.9804 29.8819C93.5698 29.8819 93.2178 29.9966 92.9244 30.2259C92.6311 30.4499 92.3831 30.7806 92.1804 31.2179V36.3299H90.2044ZM100.848 36.3299H99.0557L95.7917 28.1219H97.4317C97.5757 28.1219 97.6957 28.1566 97.7917 28.2259C97.893 28.2952 97.9624 28.3832 97.9997 28.4899L99.5837 32.8739C99.6744 33.1299 99.749 33.3806 99.8077 33.6259C99.8717 33.8712 99.9277 34.1166 99.9757 34.3619C100.024 34.1166 100.077 33.8712 100.136 33.6259C100.2 33.3806 100.28 33.1299 100.376 32.8739L102 28.4899C102.037 28.3832 102.104 28.2952 102.2 28.2259C102.296 28.1566 102.41 28.1219 102.544 28.1219H104.104L100.848 36.3299ZM108.393 27.9939C108.911 27.9939 109.385 28.0766 109.817 28.2419C110.255 28.4072 110.631 28.6499 110.945 28.9699C111.26 29.2846 111.505 29.6739 111.681 30.1379C111.857 30.5966 111.945 31.1219 111.945 31.7139C111.945 31.8632 111.937 31.9886 111.921 32.0899C111.911 32.1859 111.887 32.2632 111.849 32.3219C111.817 32.3752 111.772 32.4152 111.713 32.4419C111.655 32.4632 111.58 32.4739 111.489 32.4739H106.417C106.476 33.3166 106.703 33.9352 107.097 34.3299C107.492 34.7246 108.015 34.9219 108.665 34.9219C108.985 34.9219 109.26 34.8846 109.489 34.8099C109.724 34.7352 109.927 34.6526 110.097 34.5619C110.273 34.4712 110.425 34.3886 110.553 34.3139C110.687 34.2392 110.815 34.2019 110.937 34.2019C111.017 34.2019 111.087 34.2179 111.145 34.2499C111.204 34.2819 111.255 34.3272 111.297 34.3859L111.873 35.1059C111.655 35.3619 111.409 35.5779 111.137 35.7539C110.865 35.9246 110.58 36.0632 110.281 36.1699C109.988 36.2712 109.687 36.3432 109.377 36.3859C109.073 36.4286 108.777 36.4499 108.489 36.4499C107.919 36.4499 107.388 36.3566 106.897 36.1699C106.407 35.9779 105.98 35.6979 105.617 35.3299C105.255 34.9566 104.969 34.4979 104.761 33.9539C104.553 33.4046 104.449 32.7699 104.449 32.0499C104.449 31.4899 104.54 30.9646 104.721 30.4739C104.903 29.9779 105.161 29.5486 105.497 29.1859C105.839 28.8179 106.252 28.5272 106.737 28.3139C107.228 28.1006 107.78 27.9939 108.393 27.9939ZM108.433 29.4099C107.857 29.4099 107.407 29.5726 107.081 29.8979C106.756 30.2232 106.548 30.6846 106.457 31.2819H110.169C110.169 31.0259 110.135 30.7859 110.065 30.5619C109.996 30.3326 109.889 30.1326 109.745 29.9619C109.601 29.7912 109.42 29.6579 109.201 29.5619C108.983 29.4606 108.727 29.4099 108.433 29.4099ZM119.554 38.5859C119.495 38.7246 119.418 38.8286 119.322 38.8979C119.231 38.9726 119.09 39.0099 118.898 39.0099H117.426L118.962 35.7219L115.642 28.1219H117.37C117.53 28.1219 117.653 28.1592 117.738 28.2339C117.823 28.3086 117.887 28.3939 117.93 28.4899L119.682 32.7459C119.741 32.8846 119.791 33.0286 119.834 33.1779C119.877 33.3272 119.914 33.4766 119.946 33.6259C119.989 33.4712 120.034 33.3219 120.082 33.1779C120.135 33.0339 120.191 32.8872 120.25 32.7379L121.898 28.4899C121.941 28.3832 122.01 28.2952 122.106 28.2259C122.207 28.1566 122.319 28.1219 122.442 28.1219H124.026L119.554 38.5859ZM128.412 27.9939C129.025 27.9939 129.58 28.0926 130.076 28.2899C130.577 28.4872 131.004 28.7672 131.356 29.1299C131.708 29.4926 131.98 29.9352 132.172 30.4579C132.364 30.9806 132.46 31.5646 132.46 32.2099C132.46 32.8606 132.364 33.4472 132.172 33.9699C131.98 34.4926 131.708 34.9379 131.356 35.3059C131.004 35.6739 130.577 35.9566 130.076 36.1539C129.58 36.3512 129.025 36.4499 128.412 36.4499C127.798 36.4499 127.241 36.3512 126.74 36.1539C126.238 35.9566 125.809 35.6739 125.452 35.3059C125.1 34.9379 124.825 34.4926 124.628 33.9699C124.436 33.4472 124.34 32.8606 124.34 32.2099C124.34 31.5646 124.436 30.9806 124.628 30.4579C124.825 29.9352 125.1 29.4926 125.452 29.1299C125.809 28.7672 126.238 28.4872 126.74 28.2899C127.241 28.0926 127.798 27.9939 128.412 27.9939ZM128.412 34.9299C129.094 34.9299 129.598 34.7006 129.924 34.2419C130.254 33.7832 130.42 33.1112 130.42 32.2259C130.42 31.3406 130.254 30.6659 129.924 30.2019C129.598 29.7379 129.094 29.5059 128.412 29.5059C127.718 29.5059 127.206 29.7406 126.876 30.2099C126.545 30.6739 126.38 31.3459 126.38 32.2259C126.38 33.1059 126.545 33.7779 126.876 34.2419C127.206 34.7006 127.718 34.9299 128.412 34.9299ZM135.809 28.1219V33.3379C135.809 33.8392 135.924 34.2286 136.153 34.5059C136.388 34.7779 136.737 34.9139 137.201 34.9139C137.543 34.9139 137.863 34.8392 138.161 34.6899C138.46 34.5352 138.743 34.3246 139.009 34.0579V28.1219H140.985V36.3299H139.777C139.521 36.3299 139.353 36.2099 139.273 35.9699L139.137 35.3139C138.967 35.4846 138.791 35.6419 138.609 35.7859C138.428 35.9246 138.233 36.0446 138.025 36.1459C137.823 36.2419 137.601 36.3166 137.361 36.3699C137.127 36.4286 136.873 36.4579 136.601 36.4579C136.153 36.4579 135.756 36.3832 135.409 36.2339C135.068 36.0792 134.78 35.8632 134.545 35.5859C134.311 35.3086 134.132 34.9806 134.009 34.6019C133.892 34.2179 133.833 33.7966 133.833 33.3379V28.1219H135.809ZM146.213 36.3299V24.4419H148.189V29.1299C148.514 28.7832 148.882 28.5086 149.293 28.3059C149.703 28.0979 150.183 27.9939 150.733 27.9939C151.181 27.9939 151.589 28.0872 151.957 28.2739C152.33 28.4552 152.65 28.7219 152.917 29.0739C153.189 29.4259 153.397 29.8606 153.541 30.3779C153.69 30.8952 153.765 31.4899 153.765 32.1619C153.765 32.7752 153.682 33.3432 153.517 33.8659C153.351 34.3886 153.114 34.8419 152.805 35.2259C152.501 35.6099 152.13 35.9112 151.693 36.1299C151.261 36.3432 150.775 36.4499 150.237 36.4499C149.986 36.4499 149.757 36.4232 149.549 36.3699C149.341 36.3219 149.151 36.2526 148.981 36.1619C148.81 36.0712 148.65 35.9619 148.501 35.8339C148.357 35.7006 148.218 35.5539 148.085 35.3939L147.997 35.9459C147.965 36.0846 147.909 36.1832 147.829 36.2419C147.754 36.3006 147.65 36.3299 147.517 36.3299H146.213ZM150.053 29.5299C149.642 29.5299 149.29 29.6179 148.997 29.7939C148.709 29.9646 148.439 30.2072 148.189 30.5219V34.2019C148.413 34.4792 148.655 34.6739 148.917 34.7859C149.183 34.8926 149.471 34.9459 149.781 34.9459C150.079 34.9459 150.349 34.8899 150.589 34.7779C150.829 34.6659 151.031 34.4952 151.197 34.2659C151.367 34.0366 151.498 33.7486 151.589 33.4019C151.679 33.0499 151.725 32.6366 151.725 32.1619C151.725 31.6819 151.685 31.2766 151.605 30.9459C151.53 30.6099 151.421 30.3379 151.277 30.1299C151.133 29.9219 150.957 29.7699 150.749 29.6739C150.546 29.5779 150.314 29.5299 150.053 29.5299ZM158.706 27.9939C159.223 27.9939 159.698 28.0766 160.13 28.2419C160.567 28.4072 160.943 28.6499 161.258 28.9699C161.572 29.2846 161.818 29.6739 161.994 30.1379C162.17 30.5966 162.258 31.1219 162.258 31.7139C162.258 31.8632 162.25 31.9886 162.234 32.0899C162.223 32.1859 162.199 32.2632 162.162 32.3219C162.13 32.3752 162.084 32.4152 162.026 32.4419C161.967 32.4632 161.892 32.4739 161.802 32.4739H156.73C156.788 33.3166 157.015 33.9352 157.41 34.3299C157.804 34.7246 158.327 34.9219 158.978 34.9219C159.298 34.9219 159.572 34.8846 159.802 34.8099C160.036 34.7352 160.239 34.6526 160.41 34.5619C160.586 34.4712 160.738 34.3886 160.866 34.3139C160.999 34.2392 161.127 34.2019 161.25 34.2019C161.33 34.2019 161.399 34.2179 161.458 34.2499C161.516 34.2819 161.567 34.3272 161.61 34.3859L162.186 35.1059C161.967 35.3619 161.722 35.5779 161.45 35.7539C161.178 35.9246 160.892 36.0632 160.594 36.1699C160.3 36.2712 159.999 36.3432 159.69 36.3859C159.386 36.4286 159.09 36.4499 158.802 36.4499C158.231 36.4499 157.7 36.3566 157.21 36.1699C156.719 35.9779 156.292 35.6979 155.93 35.3299C155.567 34.9566 155.282 34.4979 155.074 33.9539C154.866 33.4046 154.762 32.7699 154.762 32.0499C154.762 31.4899 154.852 30.9646 155.034 30.4739C155.215 29.9779 155.474 29.5486 155.81 29.1859C156.151 28.8179 156.564 28.5272 157.05 28.3139C157.54 28.1006 158.092 27.9939 158.706 27.9939ZM158.746 29.4099C158.17 29.4099 157.719 29.5726 157.394 29.8979C157.068 30.2232 156.86 30.6846 156.77 31.2819H160.482C160.482 31.0259 160.447 30.7859 160.378 30.5619C160.308 30.3326 160.202 30.1326 160.058 29.9619C159.914 29.7912 159.732 29.6579 159.514 29.5619C159.295 29.4606 159.039 29.4099 158.746 29.4099ZM166.557 36.4579C165.847 36.4579 165.301 36.2579 164.917 35.8579C164.533 35.4526 164.341 34.8952 164.341 34.1859V29.6019H163.509C163.402 29.6019 163.309 29.5672 163.229 29.4979C163.154 29.4286 163.117 29.3246 163.117 29.1859V28.4019L164.437 28.1859L164.853 25.9459C164.874 25.8392 164.922 25.7566 164.997 25.6979C165.077 25.6392 165.175 25.6099 165.293 25.6099H166.317V28.1939H168.477V29.6019H166.317V34.0499C166.317 34.3059 166.381 34.5059 166.509 34.6499C166.637 34.7939 166.807 34.8659 167.021 34.8659C167.143 34.8659 167.245 34.8526 167.325 34.8259C167.41 34.7939 167.482 34.7619 167.541 34.7299C167.605 34.6979 167.661 34.6686 167.709 34.6419C167.757 34.6099 167.805 34.5939 167.853 34.5939C167.911 34.5939 167.959 34.6099 167.997 34.6419C168.034 34.6686 168.074 34.7112 168.117 34.7699L168.709 35.7299C168.421 35.9699 168.09 36.1512 167.717 36.2739C167.343 36.3966 166.957 36.4579 166.557 36.4579ZM172.744 36.4579C172.035 36.4579 171.488 36.2579 171.104 35.8579C170.72 35.4526 170.528 34.8952 170.528 34.1859V29.6019H169.696C169.59 29.6019 169.496 29.5672 169.416 29.4979C169.342 29.4286 169.304 29.3246 169.304 29.1859V28.4019L170.624 28.1859L171.04 25.9459C171.062 25.8392 171.11 25.7566 171.184 25.6979C171.264 25.6392 171.363 25.6099 171.48 25.6099H172.504V28.1939H174.664V29.6019H172.504V34.0499C172.504 34.3059 172.568 34.5059 172.696 34.6499C172.824 34.7939 172.995 34.8659 173.208 34.8659C173.331 34.8659 173.432 34.8526 173.512 34.8259C173.598 34.7939 173.67 34.7619 173.728 34.7299C173.792 34.6979 173.848 34.6686 173.896 34.6419C173.944 34.6099 173.992 34.5939 174.04 34.5939C174.099 34.5939 174.147 34.6099 174.184 34.6419C174.222 34.6686 174.262 34.7112 174.304 34.7699L174.896 35.7299C174.608 35.9699 174.278 36.1512 173.904 36.2739C173.531 36.3966 173.144 36.4579 172.744 36.4579ZM179.628 27.9939C180.145 27.9939 180.62 28.0766 181.052 28.2419C181.489 28.4072 181.865 28.6499 182.18 28.9699C182.494 29.2846 182.74 29.6739 182.916 30.1379C183.092 30.5966 183.18 31.1219 183.18 31.7139C183.18 31.8632 183.172 31.9886 183.156 32.0899C183.145 32.1859 183.121 32.2632 183.084 32.3219C183.052 32.3752 183.006 32.4152 182.948 32.4419C182.889 32.4632 182.814 32.4739 182.724 32.4739H177.652C177.71 33.3166 177.937 33.9352 178.332 34.3299C178.726 34.7246 179.249 34.9219 179.9 34.9219C180.22 34.9219 180.494 34.8846 180.724 34.8099C180.958 34.7352 181.161 34.6526 181.332 34.5619C181.508 34.4712 181.66 34.3886 181.788 34.3139C181.921 34.2392 182.049 34.2019 182.172 34.2019C182.252 34.2019 182.321 34.2179 182.38 34.2499C182.438 34.2819 182.489 34.3272 182.532 34.3859L183.108 35.1059C182.889 35.3619 182.644 35.5779 182.372 35.7539C182.1 35.9246 181.814 36.0632 181.516 36.1699C181.222 36.2712 180.921 36.3432 180.612 36.3859C180.308 36.4286 180.012 36.4499 179.724 36.4499C179.153 36.4499 178.622 36.3566 178.132 36.1699C177.641 35.9779 177.214 35.6979 176.852 35.3299C176.489 34.9566 176.204 34.4979 175.996 33.9539C175.788 33.4046 175.684 32.7699 175.684 32.0499C175.684 31.4899 175.774 30.9646 175.956 30.4739C176.137 29.9779 176.396 29.5486 176.732 29.1859C177.073 28.8179 177.486 28.5272 177.972 28.3139C178.462 28.1006 179.014 27.9939 179.628 27.9939ZM179.668 29.4099C179.092 29.4099 178.641 29.5726 178.316 29.8979C177.99 30.2232 177.782 30.6846 177.692 31.2819H181.404C181.404 31.0259 181.369 30.7859 181.3 30.5619C181.23 30.3326 181.124 30.1326 180.98 29.9619C180.836 29.7912 180.654 29.6579 180.436 29.5619C180.217 29.4606 179.961 29.4099 179.668 29.4099ZM184.783 36.3299V28.1219H185.943C186.145 28.1219 186.287 28.1592 186.367 28.2339C186.447 28.3086 186.5 28.4366 186.527 28.6179L186.647 29.6099C186.94 29.1032 187.284 28.7032 187.679 28.4099C188.073 28.1166 188.516 27.9699 189.007 27.9699C189.412 27.9699 189.748 28.0632 190.015 28.2499L189.759 29.7299C189.743 29.8259 189.708 29.8952 189.655 29.9379C189.601 29.9752 189.529 29.9939 189.439 29.9939C189.359 29.9939 189.249 29.9752 189.111 29.9379C188.972 29.9006 188.788 29.8819 188.559 29.8819C188.148 29.8819 187.796 29.9966 187.503 30.2259C187.209 30.4499 186.961 30.7806 186.759 31.2179V36.3299H184.783ZM189.748 35.2419C189.748 35.0766 189.777 34.9192 189.836 34.7699C189.9 34.6206 189.985 34.4926 190.092 34.3859C190.204 34.2792 190.335 34.1939 190.484 34.1299C190.633 34.0659 190.793 34.0339 190.964 34.0339C191.129 34.0339 191.287 34.0659 191.436 34.1299C191.585 34.1939 191.713 34.2792 191.82 34.3859C191.927 34.4926 192.012 34.6206 192.076 34.7699C192.14 34.9192 192.172 35.0766 192.172 35.2419C192.172 35.4126 192.14 35.5726 192.076 35.7219C192.012 35.8659 191.927 35.9912 191.82 36.0979C191.713 36.2046 191.585 36.2872 191.436 36.3459C191.287 36.4099 191.129 36.4419 190.964 36.4419C190.793 36.4419 190.633 36.4099 190.484 36.3459C190.335 36.2872 190.204 36.2046 190.092 36.0979C189.985 35.9912 189.9 35.8659 189.836 35.7219C189.777 35.5726 189.748 35.4126 189.748 35.2419Z" fill="#2F2F30"/>
</svg>
