<?xml version="1.0" encoding="UTF-8" standalone="no"?>
<!DOCTYPE svg PUBLIC "-//W3C//DTD SVG 1.1//EN" "http://www.w3.org/Graphics/SVG/1.1/DTD/svg11.dtd">
<svg width="100%" height="100%" viewBox="0 0 1330 1330" version="1.1" xmlns="http://www.w3.org/2000/svg" xmlns:xlink="http://www.w3.org/1999/xlink" xml:space="preserve" xmlns:serif="http://www.serif.com/" style="fill-rule:evenodd;clip-rule:evenodd;stroke-linejoin:round;stroke-miterlimit:2;">
    <path d="M416,0C416,0 28.308,10.551 2,439.216L2,895C2,895 -9.076,1299.65 458,1324L871,1324C871,1324 1328.77,1352.97 1329.08,820L1328,504C1328,504 1374.26,65.46 919,0L416,0Z" style="fill:rgb(63,141,255);"/>
    <g id="_2116467169744" transform="matrix(1.03641,0,0,1.03641,-16.9884,-33.1141)">
        <path d="M273.53,476.77L273.53,758.42C273.78,822.11 325.8,873.37 389.24,873.11L799.79,873.11C811.46,873.11 820.85,863.72 820.85,852.3L820.85,570.65C820.6,506.96 768.58,455.7 705.15,455.96L294.6,455.96C282.93,455.96 273.54,465.35 273.54,476.77L273.53,476.77ZM846.98,586.64L1016.48,462.82C1031.2,450.64 1042.61,453.68 1042.61,475.76L1042.61,853.32C1042.61,878.44 1028.65,875.4 1016.48,866.26L846.98,742.69L846.98,586.64Z" style="fill:white;fill-rule:nonzero;"/>
    </g>
</svg>
